<?xml version="1.0" encoding="UTF-8" standalone="no"?> <svg width="64" height="64" viewBox="0 0 64 64" fill="none" xmlns="http://www.w3.org/2000/svg">
<path d="M36.2 32C36.6 31.6 37.2 31.3 37.8 31.2C38.8 31.1 39.8 30.6 40.5 29.9L42.4 28C42.8 27.6 42.8 27 42.4 26.6L37.4 21.7C37 21.3 36.4 21.3 36 21.7L34.1 23.6C33.4 24.3 32.9 25.3 32.8 26.3C32.7 26.9 32.4 27.4 32 27.9L29.9 30C27.9 32 25.3 33.5 22.5 34.1C19.3 34.8 16.4 36.4 14.1 38.8L3.2 49.5C2.4 50.3 2 51.3 2 52.3C2 53.3 2.4 54.4 3.2 55.1L8.9 60.8C9.7 61.6 10.7 62 11.7 62C12.7 62 13.8 61.6 14.5 60.8L25.3 50C27.6 47.7 29.2 44.8 30 41.6C30.7 38.8 32.1 36.2 34.1 34.2L36.2 32ZM22.4 44.7C22.2 44.5 21.9 44.4 21.6 44.4C21 44.4 20.5 44.2 20.1 43.8C19.7 43.4 19.5 42.9 19.5 42.3C19.5 42 19.4 41.7 19.2 41.5L16.7 39C17.2 38.6 17.8 38.2 18.4 37.8L20.7 40.1C20.9 40.3 21.2 40.4 21.5 40.4C22.1 40.4 22.6 40.6 23 41C23.4 41.4 23.6 41.9 23.6 42.5C23.6 42.8 23.7 43.1 23.9 43.3L26.2 45.6C25.9 46.2 25.5 46.7 25 47.3L22.4 44.7ZM20.1 52.3L14.5 58L6 49.5L11.7 43.8L20.1 52.3Z" fill="black"/>
<path d="M56 10.8C56.2 11 56.4 11.1 56.7 11.1C57 11.1 57.2 11 57.4 10.8L58.8 9.39999C59.2 8.99999 59.6 8.69999 60.1 8.49999L60.8 8.09999C61.4 7.79999 61.8 7.29999 61.9 6.59999C62 5.99999 61.8 5.29999 61.3 4.89999L59 2.59999C58.7 2.09999 58 1.89999 57.4 1.99999C56.8 2.09999 56.2 2.49999 55.9 3.09999L55.5 3.79999C55.3 4.29999 54.9 4.69999 54.6 5.09999L53.2 6.49999C52.8 6.89999 52.8 7.49999 53.2 7.89999L56 10.8Z" fill="black"/>
<path d="M42.3 21.7C42.5 21.9 42.8 22 43 22C43.2 22 43.5 21.9 43.7 21.7L52.7 12.7C53.1 12.3 53.1 11.7 52.7 11.3C52.3 10.9 51.7 10.9 51.3 11.3L42.3 20.3C41.9 20.7 41.9 21.3 42.3 21.7Z" fill="black"/>
<path d="M58 19C58 18.4 57.6 18 57 18C52.9 18 49 19.6 46.1 22.5L44.3 24.3C43.9 24.7 43.9 25.3 44.3 25.7C44.5 25.9 44.8 26 45 26C45.2 26 45.5 25.9 45.7 25.7L47.5 23.9C50 21.4 53.4 20 57 20C57.6 20 58 19.6 58 19Z" fill="black"/>
<path d="M39 20C39.3 20 39.5 19.9 39.7 19.7L41.4 18C44.3 15.1 45.7 10.9 45 6.8C44.9 6.3 44.4 5.9 43.8 6C43.3 6.1 42.9 6.6 43 7.2C43.6 10.6 42.4 14.2 40 16.6L38.3 18.3C37.9 18.7 37.9 19.3 38.3 19.7C38.5 19.9 38.7 20 39 20Z" fill="black"/>
<path d="M61 20C61.5523 20 62 19.5523 62 19C62 18.4477 61.5523 18 61 18C60.4477 18 60 18.4477 60 19C60 19.5523 60.4477 20 61 20Z" fill="black"/>
<path d="M44 4C44.5523 4 45 3.55228 45 3C45 2.44772 44.5523 2 44 2C43.4477 2 43 2.44772 43 3C43 3.55228 43.4477 4 44 4Z" fill="black"/>
<path d="M62 13.8C61.9 13.3 61.4 12.9 60.8 13L55.8 14C55.3 14.1 54.9 14.6 55 15.2C55.1 15.7 55.5 16 56 16C56.1 16 56.1 16 56.2 16L61.2 15C61.7 14.9 62.1 14.3 62 13.8Z" fill="black"/>
<path d="M47.5 11.9C47.6 12 47.8 12 48 12C48.3 12 48.7 11.8 48.9 11.5L49.1 11.1C50.7 8.49999 51 5.39999 50 2.59999C49.8 2.09999 49.2 1.79999 48.7 1.99999C48.2 2.19999 47.9 2.79999 48.1 3.29999C48.9 5.59999 48.7 7.99999 47.4 10.1L47.2 10.5C46.9 11 47 11.6 47.5 11.9Z" fill="black"/>
<path d="M60.5 57.1L58.8 58.1L55.7 52.8C57.4 51.3 57.9 48.6 56.7 46.6L52.7 39.7C52.4 39.2 51.8 39.1 51.3 39.3L44.7 43.1L45.3 39.6C45.4 39.1 45 38.5 44.5 38.4L36.6 37C36.1 36.9 35.5 37.3 35.4 37.8L34 45.7C33.6 48.1 34.9 50.4 37.1 51.2L36 57.2L34 56.9C33.5 56.8 32.9 57.2 32.8 57.7C32.7 58.2 33.1 58.8 33.6 58.9L36.6 59.4L39.6 59.9C39.7 59.9 39.7 59.9 39.8 59.9C40.3 59.9 40.7 59.6 40.8 59.1C40.9 58.6 40.5 58 40 57.9L38 57.6L39.1 51.6C41.4 51.5 43.5 49.9 43.9 47.5L44.3 45.2L48 51.6C48.9 53.2 50.6 54.1 52.3 54.1C52.8 54.1 53.4 54 53.9 53.8L57 59.1L55.3 60.1C54.8 60.4 54.7 61 54.9 61.5C55.1 61.8 55.4 62 55.8 62C56 62 56.1 62 56.3 61.9L58.9 60.4L61.5 58.9C62 58.6 62.1 58 61.9 57.5C61.6 57 61 56.9 60.5 57.1ZM37.3 39.2L43.2 40.2L42.7 43C41.5 42.6 40.2 42.6 39.1 43.2C38.6 43.5 38 43.5 37.5 43.4C37.2 43.3 36.9 43.2 36.7 43.1L37.3 39.2ZM51.5 41.5L53.5 45C53.3 45.2 53.1 45.4 52.8 45.6C52.3 45.9 51.7 46 51.2 45.9C49.9 45.7 48.7 46.1 47.7 46.9L46.3 44.5L51.5 41.5Z" fill="black"/>
<path d="M43 32V35C43 35.6 43.4 36 44 36C44.6 36 45 35.6 45 35V32C45 31.4 44.6 31 44 31C43.4 31 43 31.4 43 32Z" fill="black"/>
<path d="M48 30.8L47 34.8C46.9 35.3 47.2 35.9 47.7 36C47.8 36 47.9 36 47.9 36C48.3 36 48.8 35.7 48.9 35.2L49.9 31.2C50 30.7 49.7 30.1 49.2 30C48.7 29.9 48.2 30.2 48 30.8Z" fill="black"/>
<path d="M54.4 33.2L51.4 35.2C50.9 35.5 50.8 36.1 51.1 36.6C51.3 36.9 51.6 37 51.9 37C52.1 37 52.3 36.9 52.5 36.8L55.5 34.8C56 34.5 56.1 33.9 55.8 33.4C55.5 32.9 54.9 32.9 54.4 33.2Z" fill="black"/>
<path d="M3.90001 28.4C3.50001 28 2.90001 28 2.50001 28.4C2.10001 28.8 2.10001 29.4 2.50001 29.8L3.20001 30.5L2.50001 31.2C2.10001 31.6 2.10001 32.2 2.50001 32.6C2.70001 32.8 3.00001 32.9 3.20001 32.9C3.40001 32.9 3.70001 32.8 3.90001 32.6L4.60001 31.9L5.30001 32.6C5.50001 32.8 5.80001 32.9 6.00001 32.9C6.20001 32.9 6.50001 32.8 6.70001 32.6C7.10001 32.2 7.10001 31.6 6.70001 31.2L6.00001 30.5L6.70001 29.8C7.10001 29.4 7.10001 28.8 6.70001 28.4C6.30001 28 5.70001 28 5.30001 28.4L4.60001 29.1L3.90001 28.4Z" fill="black"/>
<path d="M8.29999 12.3H9.29999V13.3C9.29999 13.9 9.69999 14.3 10.3 14.3C10.9 14.3 11.3 13.9 11.3 13.3V12.3H12.3C12.9 12.3 13.3 11.9 13.3 11.3C13.3 10.7 12.9 10.3 12.3 10.3H11.3V9.29999C11.3 8.69999 10.9 8.29999 10.3 8.29999C9.69999 8.29999 9.29999 8.69999 9.29999 9.29999V10.3H8.29999C7.69999 10.3 7.29999 10.7 7.29999 11.3C7.29999 11.9 7.69999 12.3 8.29999 12.3Z" fill="black"/>
<path d="M9.40001 22.5L10.7 23.7L11.7 22.2L13.2 21.2L12.1 19.9L11.6 18.1L10 18.8L8.20001 18.6L8.30001 20.5L7.60001 22.1L9.40001 22.5Z" fill="black"/>
<path d="M23.2 8.4L24.9 8L26.7 8.4L26.8 6.6L27.8 5.1L26.1 4.4L24.9 3L23.7 4.4L22.1 5.1L23 6.6L23.2 8.4Z" fill="black"/>
<path d="M11.5 27C11.1 27.4 11.1 28 11.5 28.4C11.9 28.8 12.5 28.8 12.9 28.4C13.3 28 13.3 27.4 12.9 27C12.5 26.6 11.9 26.6 11.5 27Z" fill="black"/>
<path d="M37.1 9.29999C37.5 8.89999 37.5 8.29999 37.1 7.89999C36.7 7.49999 36.1 7.49999 35.7 7.89999C35.3 8.29999 35.3 8.89999 35.7 9.29999C36.1 9.69999 36.7 9.69999 37.1 9.29999Z" fill="black"/>
<path d="M3 23.7C3.55228 23.7 4 23.2523 4 22.7C4 22.1477 3.55228 21.7 3 21.7C2.44772 21.7 2 22.1477 2 22.7C2 23.2523 2.44772 23.7 3 23.7Z" fill="black"/>
<path d="M20.2 31.5C20.5 31.5 20.7 31.4 20.9 31.2C21.3 30.8 21.3 30.2 20.9 29.8L15.2 24.1C14.8 23.7 14.2 23.7 13.8 24.1C13.4 24.5 13.4 25.1 13.8 25.5L19.5 31.2C19.7 31.4 19.9 31.5 20.2 31.5Z" fill="black"/>
<path d="M10 32.9L15.7 34.3C15.8 34.3 15.9 34.3 15.9 34.3C16.3 34.3 16.8 34 16.9 33.5C17 33 16.7 32.4 16.2 32.3L10.5 31C10 30.9 9.40001 31.2 9.30001 31.7C9.20001 32.2 9.50001 32.8 10 32.9Z" fill="black"/>
<path d="M12.9 13.8C12.6 14.3 12.8 14.9 13.3 15.2C17.1 17.3 19.8 20.9 20.8 25.2L21.3 27.3C21.4 27.8 21.8 28.1 22.3 28.1C22.4 28.1 22.5 28.1 22.5 28.1C23 28 23.4 27.4 23.2 26.9L22.7 24.8C21.6 20 18.5 15.9 14.2 13.5C13.8 13.1 13.2 13.3 12.9 13.8Z" fill="black"/>
<path d="M24.1 11.4V24.1C24.1 24.7 24.5 25.1 25.1 25.1C25.7 25.1 26.1 24.7 26.1 24.1V11.4C26.1 10.8 25.7 10.4 25.1 10.4C24.5 10.4 24.1 10.9 24.1 11.4Z" fill="black"/>
<path d="M30.1 20.2C30.7 20.2 31.1 19.8 31.1 19.2V18.6C31.1 15.7 32.5 13.1 34.9 11.5C35.4 11.2 35.5 10.6 35.2 10.1C34.9 9.59999 34.3 9.49999 33.8 9.79999C30.9 11.8 29.1 15 29.1 18.6V19.2C29.1 19.8 29.5 20.2 30.1 20.2Z" fill="black"/>
</svg>
